<svg width="131" height="81" viewBox="0 0 131 81" fill="none" xmlns="http://www.w3.org/2000/svg">
<path fill-rule="evenodd" clip-rule="evenodd" d="M8 4.5C8 6.43313 6.43211 8 4.50066 8C2.56789 8 1 6.43313 1 4.5C1 2.56687 2.56789 1 4.50066 1C6.43211 1 8 2.56687 8 4.5Z" stroke="#68D585"/>
<path fill-rule="evenodd" clip-rule="evenodd" d="M27 4.5C27 6.43313 25.4321 8 23.5007 8C21.5679 8 20 6.43313 20 4.5C20 2.56687 21.5679 1 23.5007 1C25.4321 1 27 2.56687 27 4.5Z" stroke="#68D585"/>
<path fill-rule="evenodd" clip-rule="evenodd" d="M45 4.5C45 6.43313 43.4321 8 41.5007 8C39.5679 8 38 6.43313 38 4.5C38 2.56687 39.5679 1 41.5007 1C43.4321 1 45 2.56687 45 4.5Z" stroke="#68D585"/>
<path fill-rule="evenodd" clip-rule="evenodd" d="M63 4.5C63 6.43313 61.4334 8 59.5007 8C57.5679 8 56 6.43313 56 4.5C56 2.56687 57.5679 1 59.5007 1C61.4334 1 63 2.56687 63 4.5Z" stroke="#68D585"/>
<path fill-rule="evenodd" clip-rule="evenodd" d="M81 4.5C81 6.43313 79.4331 8 77.5 8C75.5669 8 74 6.43313 74 4.5C74 2.56687 75.5669 1 77.5 1C79.4331 1 81 2.56687 81 4.5Z" stroke="#68D585"/>
<path fill-rule="evenodd" clip-rule="evenodd" d="M99 4.5C99 6.43313 97.4331 8 95.5 8C93.5669 8 92 6.43313 92 4.5C92 2.56687 93.5669 1 95.5 1C97.4331 1 99 2.56687 99 4.5Z" stroke="#68D585"/>
<path fill-rule="evenodd" clip-rule="evenodd" d="M117 4.5C117 6.43313 115.433 8 113.501 8C111.567 8 110 6.43313 110 4.5C110 2.56687 111.567 1 113.501 1C115.433 1 117 2.56687 117 4.5Z" stroke="#68D585"/>
<path fill-rule="evenodd" clip-rule="evenodd" d="M135 4.5C135 6.43313 133.432 8 131.501 8C129.567 8 128 6.43313 128 4.5C128 2.56687 129.567 1 131.501 1C133.432 1 135 2.56687 135 4.5Z" stroke="#68D585"/>
<path fill-rule="evenodd" clip-rule="evenodd" d="M8 22.5C8 24.4331 6.43211 26 4.50066 26C2.56789 26 1 24.4331 1 22.5C1 20.5669 2.56789 19 4.50066 19C6.43211 19 8 20.5669 8 22.5Z" stroke="#68D585"/>
<path fill-rule="evenodd" clip-rule="evenodd" d="M27 22.5C27 24.4331 25.4321 26 23.5007 26C21.5679 26 20 24.4331 20 22.5C20 20.5669 21.5679 19 23.5007 19C25.4321 19 27 20.5669 27 22.5Z" stroke="#68D585"/>
<path fill-rule="evenodd" clip-rule="evenodd" d="M45 22.5C45 24.4331 43.4321 26 41.5007 26C39.5679 26 38 24.4331 38 22.5C38 20.5669 39.5679 19 41.5007 19C43.4321 19 45 20.5669 45 22.5Z" stroke="#68D585"/>
<path fill-rule="evenodd" clip-rule="evenodd" d="M63 22.5C63 24.4331 61.4334 26 59.5007 26C57.5679 26 56 24.4331 56 22.5C56 20.5669 57.5679 19 59.5007 19C61.4334 19 63 20.5669 63 22.5Z" stroke="#68D585"/>
<path fill-rule="evenodd" clip-rule="evenodd" d="M81 22.5C81 24.4331 79.4331 26 77.5 26C75.5669 26 74 24.4331 74 22.5C74 20.5669 75.5669 19 77.5 19C79.4331 19 81 20.5669 81 22.5Z" stroke="#68D585"/>
<path fill-rule="evenodd" clip-rule="evenodd" d="M99 22.5C99 24.4331 97.4331 26 95.5 26C93.5669 26 92 24.4331 92 22.5C92 20.5669 93.5669 19 95.5 19C97.4331 19 99 20.5669 99 22.5Z" stroke="#68D585"/>
<path fill-rule="evenodd" clip-rule="evenodd" d="M117 22.5C117 24.4331 115.433 26 113.501 26C111.567 26 110 24.4331 110 22.5C110 20.5669 111.567 19 113.501 19C115.433 19 117 20.5669 117 22.5Z" stroke="#68D585"/>
<path fill-rule="evenodd" clip-rule="evenodd" d="M135 22.5C135 24.4331 133.432 26 131.501 26C129.567 26 128 24.4331 128 22.5C128 20.5669 129.567 19 131.501 19C133.432 19 135 20.5669 135 22.5Z" stroke="#68D585"/>
<path fill-rule="evenodd" clip-rule="evenodd" d="M8 40.5C8 42.4331 6.43211 44 4.50066 44C2.56789 44 1 42.4331 1 40.5C1 38.5669 2.56789 37 4.50066 37C6.43211 37 8 38.5669 8 40.5Z" stroke="#68D585"/>
<path fill-rule="evenodd" clip-rule="evenodd" d="M27 40.5C27 42.4331 25.4321 44 23.5007 44C21.5679 44 20 42.4331 20 40.5C20 38.5669 21.5679 37 23.5007 37C25.4321 37 27 38.5669 27 40.5Z" stroke="#68D585"/>
<path fill-rule="evenodd" clip-rule="evenodd" d="M45 40.5C45 42.4331 43.4321 44 41.5007 44C39.5679 44 38 42.4331 38 40.5C38 38.5669 39.5679 37 41.5007 37C43.4321 37 45 38.5669 45 40.5Z" stroke="#68D585"/>
<path fill-rule="evenodd" clip-rule="evenodd" d="M63 40.5C63 42.4331 61.4334 44 59.5007 44C57.5679 44 56 42.4331 56 40.5C56 38.5669 57.5679 37 59.5007 37C61.4334 37 63 38.5669 63 40.5Z" stroke="#68D585"/>
<path fill-rule="evenodd" clip-rule="evenodd" d="M81 40.5C81 42.4331 79.4331 44 77.5 44C75.5669 44 74 42.4331 74 40.5C74 38.5669 75.5669 37 77.5 37C79.4331 37 81 38.5669 81 40.5Z" stroke="#68D585"/>
<path fill-rule="evenodd" clip-rule="evenodd" d="M99 40.5C99 42.4331 97.4331 44 95.5 44C93.5669 44 92 42.4331 92 40.5C92 38.5669 93.5669 37 95.5 37C97.4331 37 99 38.5669 99 40.5Z" stroke="#68D585"/>
<path fill-rule="evenodd" clip-rule="evenodd" d="M117 40.5C117 42.4331 115.433 44 113.501 44C111.567 44 110 42.4331 110 40.5C110 38.5669 111.567 37 113.501 37C115.433 37 117 38.5669 117 40.5Z" stroke="#68D585"/>
<path fill-rule="evenodd" clip-rule="evenodd" d="M135 40.5C135 42.4331 133.432 44 131.501 44C129.567 44 128 42.4331 128 40.5C128 38.5669 129.567 37 131.501 37C133.432 37 135 38.5669 135 40.5Z" stroke="#68D585"/>
<path fill-rule="evenodd" clip-rule="evenodd" d="M8 58.5C8 60.4331 6.43211 62 4.50066 62C2.56789 62 1 60.4331 1 58.5C1 56.5669 2.56789 55 4.50066 55C6.43211 55 8 56.5669 8 58.5Z" stroke="#68D585"/>
<path fill-rule="evenodd" clip-rule="evenodd" d="M27 58.5C27 60.4331 25.4321 62 23.5007 62C21.5679 62 20 60.4331 20 58.5C20 56.5669 21.5679 55 23.5007 55C25.4321 55 27 56.5669 27 58.5Z" stroke="#68D585"/>
<path fill-rule="evenodd" clip-rule="evenodd" d="M45 58.5C45 60.4331 43.4321 62 41.5007 62C39.5679 62 38 60.4331 38 58.5C38 56.5669 39.5679 55 41.5007 55C43.4321 55 45 56.5669 45 58.5Z" stroke="#68D585"/>
<path fill-rule="evenodd" clip-rule="evenodd" d="M63 58.5C63 60.4331 61.4334 62 59.5007 62C57.5679 62 56 60.4331 56 58.5C56 56.5669 57.5679 55 59.5007 55C61.4334 55 63 56.5669 63 58.5Z" stroke="#68D585"/>
<path fill-rule="evenodd" clip-rule="evenodd" d="M81 58.5C81 60.4331 79.4331 62 77.5 62C75.5669 62 74 60.4331 74 58.5C74 56.5669 75.5669 55 77.5 55C79.4331 55 81 56.5669 81 58.5Z" stroke="#68D585"/>
<path fill-rule="evenodd" clip-rule="evenodd" d="M99 58.5C99 60.4331 97.4331 62 95.5 62C93.5669 62 92 60.4331 92 58.5C92 56.5669 93.5669 55 95.5 55C97.4331 55 99 56.5669 99 58.5Z" stroke="#68D585"/>
<path fill-rule="evenodd" clip-rule="evenodd" d="M117 58.5C117 60.4331 115.433 62 113.501 62C111.567 62 110 60.4331 110 58.5C110 56.5669 111.567 55 113.501 55C115.433 55 117 56.5669 117 58.5Z" stroke="#68D585"/>
<path fill-rule="evenodd" clip-rule="evenodd" d="M135 58.5C135 60.4331 133.432 62 131.501 62C129.567 62 128 60.4331 128 58.5C128 56.5669 129.567 55 131.501 55C133.432 55 135 56.5669 135 58.5Z" stroke="#68D585"/>
<path fill-rule="evenodd" clip-rule="evenodd" d="M8 76.5C8 78.4331 6.43211 80 4.50066 80C2.56789 80 1 78.4331 1 76.5C1 74.5669 2.56789 73 4.50066 73C6.43211 73 8 74.5669 8 76.5Z" stroke="#68D585"/>
<path fill-rule="evenodd" clip-rule="evenodd" d="M27 76.5C27 78.4331 25.4321 80 23.5007 80C21.5679 80 20 78.4331 20 76.5C20 74.5669 21.5679 73 23.5007 73C25.4321 73 27 74.5669 27 76.5Z" stroke="#68D585"/>
<path fill-rule="evenodd" clip-rule="evenodd" d="M45 76.5C45 78.4331 43.4321 80 41.5007 80C39.5679 80 38 78.4331 38 76.5C38 74.5669 39.5679 73 41.5007 73C43.4321 73 45 74.5669 45 76.5Z" stroke="#68D585"/>
<path fill-rule="evenodd" clip-rule="evenodd" d="M63 76.5C63 78.4331 61.4334 80 59.5007 80C57.5679 80 56 78.4331 56 76.5C56 74.5669 57.5679 73 59.5007 73C61.4334 73 63 74.5669 63 76.5Z" stroke="#68D585"/>
<path fill-rule="evenodd" clip-rule="evenodd" d="M81 76.5C81 78.4331 79.4331 80 77.5 80C75.5669 80 74 78.4331 74 76.5C74 74.5669 75.5669 73 77.5 73C79.4331 73 81 74.5669 81 76.5Z" stroke="#68D585"/>
<path fill-rule="evenodd" clip-rule="evenodd" d="M99 76.5C99 78.4331 97.4331 80 95.5 80C93.5669 80 92 78.4331 92 76.5C92 74.5669 93.5669 73 95.5 73C97.4331 73 99 74.5669 99 76.5Z" stroke="#68D585"/>
<path fill-rule="evenodd" clip-rule="evenodd" d="M117 76.5C117 78.4331 115.433 80 113.501 80C111.567 80 110 78.4331 110 76.5C110 74.5669 111.567 73 113.501 73C115.433 73 117 74.5669 117 76.5Z" stroke="#68D585"/>
<path fill-rule="evenodd" clip-rule="evenodd" d="M135 76.5C135 78.4331 133.432 80 131.501 80C129.567 80 128 78.4331 128 76.5C128 74.5669 129.567 73 131.501 73C133.432 73 135 74.5669 135 76.5Z" stroke="#68D585"/>
</svg>
