<svg width="88" height="91" viewBox="0 0 88 91" fill="none" xmlns="http://www.w3.org/2000/svg">
<path opacity="0.797991" fill-rule="evenodd" clip-rule="evenodd" d="M57.984 86.3643H57.9729C57.4979 86.3643 57.0814 86.5527 56.7345 86.8234C56.6677 86.8764 56.5841 86.9071 56.5242 86.9671C56.1912 87.302 55.999 87.7597 55.9572 88.2593C55.953 88.3151 55.9252 88.3639 55.9252 88.4211C55.9252 88.6751 55.9851 88.9123 56.0701 89.1355C56.0979 89.2081 56.1327 89.2709 56.1676 89.3393C56.2428 89.4858 56.3333 89.6211 56.442 89.7453C56.4949 89.8067 56.5423 89.8695 56.6022 89.9239C56.7666 90.0732 56.9477 90.2044 57.1538 90.2951H57.1552C57.4101 90.4081 57.6887 90.4765 57.984 90.4765C58.8993 90.4765 59.6473 89.8681 59.9134 89.0379C59.9844 88.8481 60.0332 88.65 60.0345 88.4323C60.0345 88.4281 60.0373 88.4253 60.0373 88.4211C60.0373 87.2839 59.118 86.3643 57.984 86.3643ZM86.7086 61.8464C86.5094 61.7627 86.2879 61.7306 86.0609 61.7153C86.0205 61.7139 85.9884 61.6916 85.9466 61.6916H85.9355C84.8016 61.6916 83.8878 62.6122 83.8878 63.7491C83.8878 64.0252 83.9463 64.2861 84.0452 64.5232C84.1148 64.6934 84.2291 64.8301 84.3363 64.9738C84.3809 65.0282 84.406 65.0951 84.4533 65.1453C84.7946 65.508 85.2655 65.7312 85.792 65.773C85.7948 65.773 85.7976 65.7744 85.8004 65.7758V65.7744C85.8505 65.7786 85.8951 65.8037 85.9466 65.8037C87.0805 65.8037 87.9999 64.8831 87.9999 63.7491C87.9999 62.8842 87.4636 62.1505 86.7086 61.8464ZM16.0403 25.5046H16.0292C14.8952 25.5046 13.9814 26.4252 13.9814 27.5606C13.9814 28.6947 14.9064 29.6167 16.0403 29.6167C17.1728 29.6167 18.0936 28.6947 18.0936 27.5606C18.0936 26.4252 17.1728 25.5046 16.0403 25.5046ZM16.0403 74.028H16.0292C14.8952 74.028 13.9814 74.9475 13.9814 76.0847C13.9814 77.2192 14.9064 78.1401 16.0403 78.1401C17.1728 78.1401 18.0936 77.2192 18.0936 76.0847C18.0936 74.9475 17.1728 74.028 16.0403 74.028ZM30.0215 41.9531C31.1554 41.9531 32.0747 41.0311 32.0747 39.897C32.0747 38.7602 31.1554 37.8409 30.0215 37.8409H30.0117C28.8764 37.8409 27.9626 38.7602 27.9626 39.897C27.9626 41.0311 28.8875 41.9531 30.0215 41.9531ZM16.0403 13.1682H16.0292C14.8952 13.1682 13.9814 14.0888 13.9814 15.2242C13.9814 16.3597 14.9064 17.2803 16.0403 17.2803C17.1728 17.2803 18.0936 16.3597 18.0936 15.2242C18.0936 14.0888 17.1728 13.1682 16.0403 13.1682ZM16.0403 49.3552H16.0292C14.8952 49.3552 13.9814 50.2758 13.9814 51.4113C13.9814 52.5467 14.9064 53.4673 16.0403 53.4673C17.1728 53.4673 18.0936 52.5467 18.0936 51.4113C18.0936 50.2758 17.1728 49.3552 16.0403 49.3552ZM16.0403 61.6916H16.0292C14.8952 61.6916 13.9814 62.6122 13.9814 63.7491C13.9814 64.8831 14.9064 65.8037 16.0403 65.8037C17.1728 65.8037 18.0936 64.8831 18.0936 63.7491C18.0936 62.6122 17.1728 61.6916 16.0403 61.6916ZM30.0215 17.2803C31.1554 17.2803 32.0747 16.3597 32.0747 15.2242C32.0747 14.0888 31.1554 13.1682 30.0215 13.1682H30.0117C28.8764 13.1682 27.9626 14.0888 27.9626 15.2242C27.9626 16.3597 28.8875 17.2803 30.0215 17.2803ZM30.0215 29.6167C31.1554 29.6167 32.0747 28.6947 32.0747 27.5606C32.0747 26.4252 31.1554 25.5046 30.0215 25.5046H30.0117C28.8764 25.5046 27.9626 26.4252 27.9626 27.5606C27.9626 28.6947 28.8875 29.6167 30.0215 29.6167ZM30.0215 4.94394C31.1554 4.94394 32.0747 4.02331 32.0747 2.88786C32.0747 1.75242 31.1554 0.831787 30.0215 0.831787H30.0117C28.8764 0.831787 27.9626 1.75242 27.9626 2.88786C27.9626 4.02331 28.8875 4.94394 30.0215 4.94394ZM16.0403 37.8409H16.0292C14.8952 37.8409 13.9814 38.7602 13.9814 39.897C13.9814 41.0311 14.9064 41.9531 16.0403 41.9531C17.1728 41.9531 18.0936 41.0311 18.0936 39.897C18.0936 38.7602 17.1728 37.8409 16.0403 37.8409ZM2.06025 49.3552H2.04772C0.913811 49.3552 0 50.2758 0 51.4113C0 52.5467 0.926348 53.4673 2.06025 53.4673C3.19416 53.4673 4.11215 52.5467 4.11215 51.4113C4.11215 50.2758 3.19416 49.3552 2.06025 49.3552ZM2.06025 37.8409H2.04772C0.913811 37.8409 0 38.7602 0 39.897C0 41.0311 0.926348 41.9531 2.06025 41.9531C3.19416 41.9531 4.11215 41.0311 4.11215 39.897C4.11215 38.7602 3.19416 37.8409 2.06025 37.8409ZM2.05956 61.6916H2.04702C1.78922 61.6916 1.54815 61.7502 1.3238 61.8394C1.20954 61.8827 1.11478 61.9524 1.01166 62.0152C0.925269 62.0696 0.837479 62.1184 0.759445 62.1868C0.624278 62.297 0.518373 62.4253 0.415256 62.5676C0.395747 62.5969 0.376239 62.6234 0.35673 62.6555C0.245252 62.8284 0.163037 63.0098 0.107298 63.2134L0.105904 63.2148V63.2162C0.058526 63.3892 0 63.5593 0 63.7491C0 64.5581 0.480749 65.243 1.16216 65.5778V65.5792H1.16355C1.43528 65.7117 1.72791 65.7995 2.04841 65.8009C2.05259 65.8009 2.05538 65.8037 2.05956 65.8037C3.19385 65.8037 4.11215 64.8831 4.11215 63.7491C4.11215 63.4645 4.05502 63.1939 3.95051 62.9484C3.63976 62.2105 2.90958 61.6916 2.05956 61.6916ZM71.9655 37.8409H71.9543C70.8204 37.8409 69.9066 38.7602 69.9066 39.897C69.9066 41.0311 70.8316 41.9531 71.9655 41.9531C73.0994 41.9531 74.0188 41.0311 74.0188 39.897C74.0188 38.7602 73.0994 37.8409 71.9655 37.8409ZM2.05956 25.5046H2.04702C1.81291 25.5046 1.59692 25.5562 1.39348 25.6371C1.20814 25.7012 1.0465 25.7975 0.890432 25.9091C0.889038 25.9091 0.889038 25.9091 0.887645 25.9105C0.362304 26.2829 0 26.866 0 27.5606C0 27.6485 0.0390173 27.7224 0.0501652 27.8089H0.0487717C0.0487717 27.8117 0.0501652 27.8131 0.0515586 27.8145C0.115659 28.3153 0.340008 28.7574 0.698132 29.0783C0.746904 29.1229 0.808217 29.148 0.859775 29.1871C1.00052 29.2903 1.13568 29.3977 1.30151 29.4633C1.53422 29.5595 1.78783 29.6167 2.05956 29.6167C2.90958 29.6167 3.63976 29.0992 3.95051 28.3599C4.05502 28.1144 4.11215 27.8438 4.11215 27.5606C4.11215 27.2775 4.05502 27.0069 3.95051 26.7614C3.63976 26.0221 2.90958 25.5046 2.05956 25.5046ZM71.9655 49.3552H71.9543C70.8204 49.3552 69.9066 50.2758 69.9066 51.4113C69.9066 52.5467 70.8316 53.4673 71.9655 53.4673C73.0994 53.4673 74.0188 52.5467 74.0188 51.4113C74.0188 50.2758 73.0994 49.3552 71.9655 49.3552ZM71.9655 25.5046H71.9543C70.8204 25.5046 69.9066 26.4252 69.9066 27.5606C69.9066 28.6947 70.8316 29.6167 71.9655 29.6167C73.0994 29.6167 74.0188 28.6947 74.0188 27.5606C74.0188 26.4252 73.0994 25.5046 71.9655 25.5046ZM71.9655 74.028H71.9543C70.8204 74.028 69.9066 74.9475 69.9066 76.0847C69.9066 77.2192 70.8316 78.1401 71.9655 78.1401C73.0994 78.1401 74.0188 77.2192 74.0188 76.0847C74.0188 74.9475 73.0994 74.028 71.9655 74.028ZM71.9655 61.6916H71.9543C70.8204 61.6916 69.9066 62.6122 69.9066 63.7491C69.9066 64.8831 70.8316 65.8037 71.9655 65.8037C73.0994 65.8037 74.0188 64.8831 74.0188 63.7491C74.0188 62.6122 73.0994 61.6916 71.9655 61.6916ZM57.9847 4.94394C59.1183 4.94394 60.0373 4.02331 60.0373 2.88786C60.0373 2.88786 60.0359 2.88647 60.0359 2.88507C60.0359 2.55169 59.9385 2.249 59.7964 1.97002C59.7825 1.94352 59.7644 1.92399 59.7491 1.89888C59.6001 1.63525 59.3968 1.41625 59.1503 1.24049H59.1489C58.8133 1.00196 58.4262 0.831787 57.9847 0.831787H57.9736C56.8401 0.831787 55.9252 1.75242 55.9252 2.88786C55.9252 4.02331 56.8512 4.94394 57.9847 4.94394ZM71.9655 13.1682H71.9543C70.8204 13.1682 69.9066 14.0888 69.9066 15.2242C69.9066 16.3597 70.8316 17.2803 71.9655 17.2803C73.0994 17.2803 74.0188 16.3597 74.0188 15.2242C74.0188 14.0888 73.0994 13.1682 71.9655 13.1682ZM57.984 25.5046H57.9729C56.839 25.5046 55.9252 26.4252 55.9252 27.5606C55.9252 28.6947 56.8501 29.6167 57.984 29.6167C59.118 29.6167 60.0373 28.6947 60.0373 27.5606C60.0373 26.4252 59.118 25.5046 57.984 25.5046ZM57.984 61.6916H57.9729C56.839 61.6916 55.9252 62.6122 55.9252 63.7491C55.9252 64.8831 56.8501 65.8037 57.984 65.8037C59.118 65.8037 60.0373 64.8831 60.0373 63.7491C60.0373 62.6122 59.118 61.6916 57.984 61.6916ZM57.984 49.3552H57.9729C56.839 49.3552 55.9252 50.2758 55.9252 51.4113C55.9252 52.5467 56.8501 53.4673 57.984 53.4673C59.118 53.4673 60.0373 52.5467 60.0373 51.4113C60.0373 50.2758 59.118 49.3552 57.984 49.3552ZM57.984 37.8409H57.9729C56.839 37.8409 55.9252 38.7602 55.9252 39.897C55.9252 41.0311 56.8501 41.9531 57.984 41.9531C59.118 41.9531 60.0373 41.0311 60.0373 39.897C60.0373 38.7602 59.118 37.8409 57.984 37.8409ZM57.984 74.028H57.9729C56.839 74.028 55.9252 74.9475 55.9252 76.0847C55.9252 77.2192 56.8501 78.1401 57.984 78.1401C59.118 78.1401 60.0373 77.2192 60.0373 76.0847C60.0373 74.9475 59.118 74.028 57.984 74.028ZM30.0215 53.4673C31.1554 53.4673 32.0747 52.5467 32.0747 51.4113C32.0747 50.2758 31.1554 49.3552 30.0215 49.3552H30.0117C28.8764 49.3552 27.9626 50.2758 27.9626 51.4113C27.9626 52.5467 28.8875 53.4673 30.0215 53.4673ZM31.473 86.9671C31.4117 86.9057 31.3281 86.8751 31.2598 86.8234C30.913 86.5527 30.4965 86.3643 30.0215 86.3643H30.0103C28.8764 86.3643 27.9626 87.2839 27.9626 88.4211C27.9626 88.9793 28.1897 89.4816 28.5518 89.8528C28.5532 89.8542 28.5532 89.8556 28.5546 89.8556C28.9279 90.2379 29.4461 90.4765 30.0215 90.4765C30.1301 90.4765 30.2234 90.4318 30.3279 90.4151C30.3293 90.4151 30.3307 90.4137 30.3321 90.4137C30.8169 90.3384 31.2403 90.1151 31.5482 89.7621C31.5983 89.7076 31.6276 89.6407 31.6708 89.5807C31.7641 89.4481 31.863 89.3225 31.9243 89.1704C32.0162 88.943 32.0706 88.6946 32.072 88.4295C32.072 88.4267 32.0747 88.4253 32.0747 88.4211C32.0747 87.8993 31.8644 87.436 31.5454 87.0732C31.5161 87.0397 31.5036 86.9964 31.473 86.9671ZM85.1461 29.4549C85.3927 29.5595 85.6631 29.6167 85.9473 29.6167C86.2469 29.6167 86.527 29.5456 86.7834 29.4298C86.7918 29.4257 86.7974 29.4187 86.8057 29.4145C87.0565 29.2974 87.2725 29.1328 87.4551 28.9293C87.7867 28.5653 87.9999 28.0912 87.9999 27.5613C87.9999 26.4263 87.0802 25.5046 85.9473 25.5046H85.9362C84.8019 25.5046 83.8878 26.4263 83.8878 27.5613C83.8878 28.4119 84.4075 29.1426 85.1461 29.4549ZM85.9473 41.9531C87.0802 41.9531 87.9999 41.0311 87.9999 39.897C87.9999 38.7602 87.0802 37.8409 85.9473 37.8409H85.9362C84.8019 37.8409 83.8878 38.7602 83.8878 39.897C83.8878 41.0311 84.8117 41.9531 85.9473 41.9531ZM85.9473 53.4673C87.0802 53.4673 87.9999 52.5467 87.9999 51.4113C87.9999 50.2758 87.0802 49.3552 85.9473 49.3552H85.9362C84.8019 49.3552 83.8878 50.2758 83.8878 51.4113C83.8878 52.5467 84.8117 53.4673 85.9473 53.4673ZM44.0029 25.5046H43.9931C42.8592 25.5046 41.944 26.4252 41.944 27.5606C41.944 28.6947 42.869 29.6167 44.0029 29.6167C45.1368 29.6167 46.0562 28.6947 46.0562 27.5606C46.0562 26.4252 45.1368 25.5046 44.0029 25.5046ZM44.0029 13.1682H43.9931C42.8592 13.1682 41.944 14.0888 41.944 15.2242C41.944 16.3597 42.869 17.2803 44.0029 17.2803C45.1368 17.2803 46.0562 16.3597 46.0562 15.2242C46.0562 14.0888 45.1368 13.1682 44.0029 13.1682ZM44.0029 0.831787H43.9931C42.8592 0.831787 41.944 1.75242 41.944 2.88786C41.944 4.02331 42.869 4.94394 44.0029 4.94394C45.1368 4.94394 46.0562 4.02331 46.0562 2.88786C46.0562 1.75242 45.1368 0.831787 44.0029 0.831787ZM30.0215 78.1401C31.1554 78.1401 32.0747 77.2192 32.0747 76.0847C32.0747 74.9475 31.1554 74.028 30.0215 74.028H30.0117C28.8764 74.028 27.9626 74.9475 27.9626 76.0847C27.9626 77.2192 28.8875 78.1401 30.0215 78.1401ZM30.0215 65.8037C31.1554 65.8037 32.0747 64.8831 32.0747 63.7491C32.0747 62.6122 31.1554 61.6916 30.0215 61.6916H30.0117C28.8764 61.6916 27.9626 62.6122 27.9626 63.7491C27.9626 64.8831 28.8875 65.8037 30.0215 65.8037ZM44.0029 37.8409H43.9931C42.8592 37.8409 41.944 38.7602 41.944 39.897C41.944 41.0311 42.869 41.9531 44.0029 41.9531C45.1368 41.9531 46.0562 41.0311 46.0562 39.897C46.0562 38.7602 45.1368 37.8409 44.0029 37.8409ZM57.984 13.1682H57.9729C56.839 13.1682 55.9252 14.0888 55.9252 15.2242C55.9252 16.3597 56.8501 17.2803 57.984 17.2803C59.118 17.2803 60.0373 16.3597 60.0373 15.2242C60.0373 14.0888 59.118 13.1682 57.984 13.1682ZM44.0029 74.028H43.9931C42.8592 74.028 41.944 74.9475 41.944 76.0847C41.944 77.2192 42.869 78.1401 44.0029 78.1401C45.1368 78.1401 46.0562 77.2192 46.0562 76.0847C46.0562 74.9475 45.1368 74.028 44.0029 74.028ZM44.0029 86.3643H43.9931C42.8592 86.3643 41.944 87.2853 41.944 88.4211C41.944 89.5569 42.869 90.4765 44.0029 90.4765C45.1368 90.4765 46.0562 89.5569 46.0562 88.4211C46.0562 87.2853 45.1368 86.3643 44.0029 86.3643ZM44.0029 61.6916H43.9931C42.8592 61.6916 41.944 62.6122 41.944 63.7491C41.944 64.8831 42.869 65.8037 44.0029 65.8037C45.1368 65.8037 46.0562 64.8831 46.0562 63.7491C46.0562 62.6122 45.1368 61.6916 44.0029 61.6916ZM44.0029 49.3552H43.9931C42.8592 49.3552 41.944 50.2758 41.944 51.4113C41.944 52.5467 42.869 53.4673 44.0029 53.4673C45.1368 53.4673 46.0562 52.5467 46.0562 51.4113C46.0562 50.2758 45.1368 49.3552 44.0029 49.3552Z" fill="#161C2D"/>
</svg>
