<svg width="67" height="67" viewBox="0 0 67 67" fill="none" xmlns="http://www.w3.org/2000/svg">
<circle cx="40" cy="40" r="27" fill="#9FD7F7"/>
<path d="M32.0626 10.8541L35 16.7291C35.3958 17.5416 36.4583 18.3124 37.3542 18.4791L42.6667 19.3541C46.0625 19.9166 46.8542 22.3749 44.4167 24.8333L40.2708 28.9791C39.5833 29.6666 39.1875 31.0208 39.4167 31.9999L40.6042 37.125C41.5417 41.1666 39.375 42.7499 35.8125 40.6249L30.8333 37.6666C29.9375 37.1249 28.4375 37.1249 27.5417 37.6666L22.5625 40.6249C19 42.7291 16.8334 41.1666 17.7709 37.125L18.9584 31.9999C19.1875 31.0416 18.7917 29.6875 18.1042 28.9791L13.9584 24.8333C11.5209 22.3958 12.3125 19.9374 15.7084 19.3541L21.0208 18.4791C21.9167 18.3333 22.9792 17.5416 23.375 16.7291L26.3125 10.8541C27.875 7.66663 30.4584 7.66663 32.0626 10.8541Z" stroke="#292D32" stroke-width="3" stroke-linecap="round" stroke-linejoin="round"/>
<path d="M16.6666 10.4166H4.16663" stroke="#292D32" stroke-width="3" stroke-linecap="round" stroke-linejoin="round"/>
<path d="M10.4166 39.5834H4.16663" stroke="#292D32" stroke-width="3" stroke-linecap="round" stroke-linejoin="round"/>
<path d="M6.24996 25H4.16663" stroke="#292D32" stroke-width="3" stroke-linecap="round" stroke-linejoin="round"/>
</svg>
