<svg width="132" height="64" viewBox="0 0 132 64" fill="none" xmlns="http://www.w3.org/2000/svg">
<path d="M28.8456 6.25716V45.5541V55.601C28.8456 60.2187 32.589 63.9621 37.2067 63.9621H47.24V53.0927C43.0841 53.0927 39.715 49.7237 39.715 45.5678V5.43469C39.715 2.43319 37.2818 0 34.2803 0C31.2788 0 28.8456 2.43319 28.8456 5.43469V6.25716Z" fill="#157DBA"/>
<path fill-rule="evenodd" clip-rule="evenodd" d="M8.36106 6.25716C3.74337 6.25716 0 10.0005 0 14.6182V37.1931C0 41.8108 3.74337 45.5541 8.36106 45.5541H28.8456V6.25716H8.36106ZM13.923 38.2382C9.30529 38.2382 5.56192 34.4948 5.56192 29.8771V20.5846C5.56192 15.9669 9.30529 12.2235 13.923 12.2235H16.6676C21.2853 12.2235 25.0286 15.9669 25.0286 20.5846V29.8771C25.0286 34.4948 21.2853 38.2382 16.6676 38.2382H13.923Z" fill="#157DBA"/>
<path d="M47.24 53.0927V63.9621L60.0854 63.7281C62.9298 63.6763 65.2085 61.3557 65.2085 58.5109C65.2085 55.6609 62.9217 53.338 60.072 53.2935L47.24 53.0927Z" fill="#157DBA"/>
<path d="M58.1182 21.667C64.6382 21.667 68.641 26.7015 68.641 32.8501C68.641 39.1638 64.4732 43.9506 57.8706 43.9506C54.6932 43.9506 51.6395 42.3825 50.0301 39.6177V41.3508C50.0301 42.919 48.8747 43.7443 47.678 43.7443C46.5225 43.7443 45.3258 42.919 45.3258 41.3508V14.6931C45.3258 13.125 46.5225 12.2997 47.678 12.2997C48.8747 12.2997 50.0301 13.125 50.0301 14.6931V26.4539C51.2681 23.4827 54.2805 21.667 58.1182 21.667ZM56.9215 39.6589C60.9656 39.6589 63.8954 36.8116 63.8954 32.8088C63.8954 28.7648 60.9656 25.9174 56.9215 25.9174C52.9187 25.9174 50.0714 28.8886 50.0714 32.8088C50.0714 36.6878 52.9187 39.6589 56.9215 39.6589ZM92.0952 21.9146C93.2506 21.9146 94.4473 22.6987 94.4473 24.2668V41.3921C94.4473 42.919 93.2919 43.7443 92.0952 43.7443C90.8985 43.7443 89.7018 42.919 89.7018 41.3921V39.1225C88.505 42.0524 85.4926 43.9093 81.6136 43.9093C75.1349 43.9093 71.0908 38.9162 71.0908 32.7263C71.0908 26.3713 75.3 21.6258 81.8612 21.6258C85.0387 21.6258 88.0924 23.1939 89.7018 25.9587V24.2668C89.7018 22.6987 90.8985 21.9146 92.0952 21.9146ZM82.8104 39.6589C86.8131 39.6589 89.6605 36.6878 89.6605 32.7675C89.6605 28.8886 86.8131 25.9174 82.8104 25.9174C78.7663 25.9174 75.8777 28.7648 75.8777 32.7675C75.8777 36.8116 78.7663 39.6589 82.8104 39.6589ZM101.76 19.3974C100.233 19.3974 98.9537 18.1594 98.9537 16.6326C98.9537 15.0645 100.233 13.8265 101.76 13.8265C103.287 13.8265 104.525 15.1058 104.525 16.6326C104.525 18.1594 103.287 19.3974 101.76 19.3974ZM99.3663 41.3508V24.2255C99.3663 22.6574 100.563 21.8734 101.76 21.8734C102.915 21.8734 104.112 22.6574 104.112 24.2255V41.3508C104.112 42.919 102.915 43.7443 101.76 43.7443C100.604 43.7443 99.3663 42.919 99.3663 41.3508ZM120.8 21.6258C125.339 21.6258 129.466 24.3906 129.466 30.9519V41.2683C129.466 42.8777 128.269 43.7443 127.072 43.7443C125.875 43.7443 124.679 42.8777 124.679 41.2683V31.6534C124.679 27.1141 122.079 25.7111 119.397 25.7111C116.054 25.7111 113.826 27.8569 113.785 31.901V41.3508C113.785 42.8777 112.588 43.703 111.391 43.703C110.194 43.703 108.998 42.8777 108.998 41.3508V24.2255C108.998 22.6574 110.194 21.8734 111.391 21.8734C112.588 21.8734 113.785 22.6574 113.785 24.2255V25.5048C115.146 23.0701 117.499 21.6258 120.8 21.6258Z" fill="#157DBA"/>
</svg>
