<svg width="922" height="562" viewBox="0 0 922 562" fill="none" xmlns="http://www.w3.org/2000/svg">
<path d="M0 50H907V306C907 447.385 792.385 562 651 562H0V50Z" fill="#ECF8FF"/>
<path opacity="0.797991" fill-rule="evenodd" clip-rule="evenodd" d="M885.503 104H885.49C884.912 104 884.406 104.229 883.984 104.558C883.903 104.623 883.801 104.66 883.728 104.733C883.324 105.14 883.09 105.697 883.039 106.304C883.034 106.372 883 106.431 883 106.501C883 106.81 883.073 107.098 883.176 107.37C883.21 107.458 883.252 107.534 883.295 107.617C883.386 107.795 883.496 107.96 883.628 108.111C883.693 108.186 883.75 108.262 883.823 108.328C884.023 108.51 884.243 108.669 884.494 108.779H884.496C884.806 108.917 885.144 109 885.503 109C886.616 109 887.526 108.26 887.849 107.251C887.936 107.02 887.995 106.779 887.997 106.514C887.997 106.509 888 106.506 888 106.501C888 105.118 886.882 104 885.503 104ZM920.43 74.1883C920.188 74.0865 919.918 74.0475 919.642 74.0288C919.593 74.0271 919.554 74 919.503 74H919.49C918.111 74 917 75.1194 917 76.5017C917 76.8375 917.071 77.1547 917.191 77.443C917.276 77.6499 917.415 77.8161 917.545 77.9908C917.6 78.057 917.63 78.1384 917.688 78.1995C918.103 78.6404 918.675 78.9118 919.315 78.9627C919.319 78.9627 919.322 78.9644 919.326 78.9661V78.9644C919.387 78.9695 919.441 79 919.503 79C920.882 79 922 77.8806 922 76.5017C922 75.4501 921.348 74.558 920.43 74.1883ZM834.503 30H834.49C833.111 30 832 31.1194 832 32.5C832 33.8789 833.125 35 834.503 35C835.88 35 837 33.8789 837 32.5C837 31.1194 835.88 30 834.503 30ZM834.503 89H834.49C833.111 89 832 90.1181 832 91.5008C832 92.8802 833.125 94 834.503 94C835.88 94 837 92.8802 837 91.5008C837 90.1181 835.88 89 834.503 89ZM851.503 50C852.882 50 854 48.8789 854 47.5C854 46.1177 852.882 45 851.503 45H851.492C850.111 45 849 46.1177 849 47.5C849 48.8789 850.125 50 851.503 50ZM834.503 15H834.49C833.111 15 832 16.1194 832 17.5C832 18.8806 833.125 20 834.503 20C835.88 20 837 18.8806 837 17.5C837 16.1194 835.88 15 834.503 15ZM834.503 59H834.49C833.111 59 832 60.1194 832 61.5C832 62.8806 833.125 64 834.503 64C835.88 64 837 62.8806 837 61.5C837 60.1194 835.88 59 834.503 59ZM834.503 74H834.49C833.111 74 832 75.1194 832 76.5017C832 77.8806 833.125 79 834.503 79C835.88 79 837 77.8806 837 76.5017C837 75.1194 835.88 74 834.503 74ZM851.503 20C852.882 20 854 18.8806 854 17.5C854 16.1194 852.882 15 851.503 15H851.492C850.111 15 849 16.1194 849 17.5C849 18.8806 850.125 20 851.503 20ZM851.503 35C852.882 35 854 33.8789 854 32.5C854 31.1194 852.882 30 851.503 30H851.492C850.111 30 849 31.1194 849 32.5C849 33.8789 850.125 35 851.503 35ZM851.503 5C852.882 5 854 3.8806 854 2.5C854 1.1194 852.882 0 851.503 0H851.492C850.111 0 849 1.1194 849 2.5C849 3.8806 850.125 5 851.503 5ZM834.503 45H834.49C833.111 45 832 46.1177 832 47.5C832 48.8789 833.125 50 834.503 50C835.88 50 837 48.8789 837 47.5C837 46.1177 835.88 45 834.503 45ZM817.505 59H817.49C816.111 59 815 60.1194 815 61.5C815 62.8806 816.126 64 817.505 64C818.884 64 820 62.8806 820 61.5C820 60.1194 818.884 59 817.505 59ZM817.505 45H817.49C816.111 45 815 46.1177 815 47.5C815 48.8789 816.126 50 817.505 50C818.884 50 820 48.8789 820 47.5C820 46.1177 818.884 45 817.505 45ZM817.504 74H817.489C817.176 74 816.882 74.0712 816.61 74.1798C816.471 74.2324 816.355 74.3172 816.23 74.3935C816.125 74.4596 816.018 74.519 815.923 74.6021C815.759 74.7361 815.63 74.8921 815.505 75.0651C815.481 75.1007 815.457 75.133 815.434 75.172C815.298 75.3823 815.198 75.6028 815.13 75.8504L815.129 75.8521V75.8538C815.071 76.0641 815 76.271 815 76.5017C815 77.4854 815.585 78.3182 816.413 78.7252V78.7269H816.415C816.745 78.8881 817.101 78.9949 817.491 78.9966C817.496 78.9966 817.499 79 817.504 79C818.883 79 820 77.8806 820 76.5017C820 76.1557 819.931 75.8267 819.803 75.5282C819.426 74.6309 818.538 74 817.504 74ZM902.503 45H902.49C901.111 45 900 46.1177 900 47.5C900 48.8789 901.125 50 902.503 50C903.882 50 905 48.8789 905 47.5C905 46.1177 903.882 45 902.503 45ZM817.504 30H817.489C817.204 30 816.942 30.0628 816.694 30.1611C816.469 30.2391 816.272 30.3562 816.083 30.4919C816.081 30.4919 816.081 30.4919 816.079 30.4936C815.441 30.9464 815 31.6554 815 32.5C815 32.6069 815.047 32.6967 815.061 32.8019H815.059C815.059 32.8053 815.061 32.807 815.063 32.8087C815.141 33.4176 815.413 33.9552 815.849 34.3453C815.908 34.3996 815.983 34.4301 816.045 34.4776C816.217 34.6031 816.381 34.7337 816.583 34.8134C816.865 34.9305 817.174 35 817.504 35C818.538 35 819.426 34.3708 819.803 33.4718C819.931 33.1733 820 32.8443 820 32.5C820 32.1557 819.931 31.8267 819.803 31.5282C819.426 30.6292 818.538 30 817.504 30ZM902.503 59H902.49C901.111 59 900 60.1194 900 61.5C900 62.8806 901.125 64 902.503 64C903.882 64 905 62.8806 905 61.5C905 60.1194 903.882 59 902.503 59ZM902.503 30H902.49C901.111 30 900 31.1194 900 32.5C900 33.8789 901.125 35 902.503 35C903.882 35 905 33.8789 905 32.5C905 31.1194 903.882 30 902.503 30ZM902.503 89H902.49C901.111 89 900 90.1181 900 91.5008C900 92.8802 901.125 94 902.503 94C903.882 94 905 92.8802 905 91.5008C905 90.1181 903.882 89 902.503 89ZM902.503 74H902.49C901.111 74 900 75.1194 900 76.5017C900 77.8806 901.125 79 902.503 79C903.882 79 905 77.8806 905 76.5017C905 75.1194 903.882 74 902.503 74ZM885.504 5C886.882 5 888 3.8806 888 2.5C888 2.5 887.998 2.4983 887.998 2.49661C887.998 2.09125 887.88 1.7232 887.707 1.38399C887.69 1.35176 887.668 1.32802 887.65 1.29749C887.468 0.976934 887.221 0.710651 886.921 0.496947H886.92C886.512 0.20692 886.041 0 885.504 0H885.491C884.112 0 883 1.1194 883 2.5C883 3.8806 884.126 5 885.504 5ZM902.503 15H902.49C901.111 15 900 16.1194 900 17.5C900 18.8806 901.125 20 902.503 20C903.882 20 905 18.8806 905 17.5C905 16.1194 903.882 15 902.503 15ZM885.503 30H885.49C884.111 30 883 31.1194 883 32.5C883 33.8789 884.125 35 885.503 35C886.882 35 888 33.8789 888 32.5C888 31.1194 886.882 30 885.503 30ZM885.503 74H885.49C884.111 74 883 75.1194 883 76.5017C883 77.8806 884.125 79 885.503 79C886.882 79 888 77.8806 888 76.5017C888 75.1194 886.882 74 885.503 74ZM885.503 59H885.49C884.111 59 883 60.1194 883 61.5C883 62.8806 884.125 64 885.503 64C886.882 64 888 62.8806 888 61.5C888 60.1194 886.882 59 885.503 59ZM885.503 45H885.49C884.111 45 883 46.1177 883 47.5C883 48.8789 884.125 50 885.503 50C886.882 50 888 48.8789 888 47.5C888 46.1177 886.882 45 885.503 45ZM885.503 89H885.49C884.111 89 883 90.1181 883 91.5008C883 92.8802 884.125 94 885.503 94C886.882 94 888 92.8802 888 91.5008C888 90.1181 886.882 89 885.503 89ZM851.503 64C852.882 64 854 62.8806 854 61.5C854 60.1194 852.882 59 851.503 59H851.492C850.111 59 849 60.1194 849 61.5C849 62.8806 850.125 64 851.503 64ZM853.268 104.733C853.194 104.658 853.092 104.621 853.009 104.558C852.587 104.229 852.081 104 851.503 104H851.49C850.111 104 849 105.118 849 106.501C849 107.18 849.276 107.79 849.716 108.242C849.718 108.243 849.718 108.245 849.72 108.245C850.174 108.71 850.804 109 851.503 109C851.636 109 851.749 108.946 851.876 108.925C851.878 108.925 851.879 108.924 851.881 108.924C852.471 108.832 852.985 108.561 853.36 108.131C853.421 108.065 853.456 107.984 853.509 107.911C853.622 107.75 853.743 107.597 853.817 107.412C853.929 107.135 853.995 106.833 853.997 106.511C853.997 106.508 854 106.506 854 106.501C854 105.866 853.744 105.303 853.356 104.862C853.321 104.821 853.306 104.769 853.268 104.733ZM918.53 34.8033C918.83 34.9305 919.159 35 919.504 35C919.869 35 920.209 34.9135 920.521 34.7728C920.531 34.7677 920.538 34.7592 920.548 34.7542C920.853 34.6117 921.116 34.4117 921.338 34.1641C921.741 33.7216 922 33.1451 922 32.5008C922 31.1207 920.882 30 919.504 30H919.491C918.111 30 917 31.1207 917 32.5008C917 33.5351 917.632 34.4235 918.53 34.8033ZM919.504 50C920.882 50 922 48.8789 922 47.5C922 46.1177 920.882 45 919.504 45H919.491C918.111 45 917 46.1177 917 47.5C917 48.8789 918.123 50 919.504 50ZM919.504 64C920.882 64 922 62.8806 922 61.5C922 60.1194 920.882 59 919.504 59H919.491C918.111 59 917 60.1194 917 61.5C917 62.8806 918.123 64 919.504 64ZM868.503 30H868.492C867.113 30 866 31.1194 866 32.5C866 33.8789 867.125 35 868.503 35C869.882 35 871 33.8789 871 32.5C871 31.1194 869.882 30 868.503 30ZM868.503 15H868.492C867.113 15 866 16.1194 866 17.5C866 18.8806 867.125 20 868.503 20C869.882 20 871 18.8806 871 17.5C871 16.1194 869.882 15 868.503 15ZM868.503 0H868.492C867.113 0 866 1.1194 866 2.5C866 3.8806 867.125 5 868.503 5C869.882 5 871 3.8806 871 2.5C871 1.1194 869.882 0 868.503 0ZM851.503 94C852.882 94 854 92.8802 854 91.5008C854 90.1181 852.882 89 851.503 89H851.492C850.111 89 849 90.1181 849 91.5008C849 92.8802 850.125 94 851.503 94ZM851.503 79C852.882 79 854 77.8806 854 76.5017C854 75.1194 852.882 74 851.503 74H851.492C850.111 74 849 75.1194 849 76.5017C849 77.8806 850.125 79 851.503 79ZM868.503 45H868.492C867.113 45 866 46.1177 866 47.5C866 48.8789 867.125 50 868.503 50C869.882 50 871 48.8789 871 47.5C871 46.1177 869.882 45 868.503 45ZM885.503 15H885.49C884.111 15 883 16.1194 883 17.5C883 18.8806 884.125 20 885.503 20C886.882 20 888 18.8806 888 17.5C888 16.1194 886.882 15 885.503 15ZM868.503 89H868.492C867.113 89 866 90.1181 866 91.5008C866 92.8802 867.125 94 868.503 94C869.882 94 871 92.8802 871 91.5008C871 90.1181 869.882 89 868.503 89ZM868.503 104H868.492C867.113 104 866 105.12 866 106.501C866 107.882 867.125 109 868.503 109C869.882 109 871 107.882 871 106.501C871 105.12 869.882 104 868.503 104ZM868.503 74H868.492C867.113 74 866 75.1194 866 76.5017C866 77.8806 867.125 79 868.503 79C869.882 79 871 77.8806 871 76.5017C871 75.1194 869.882 74 868.503 74ZM868.503 59H868.492C867.113 59 866 60.1194 866 61.5C866 62.8806 867.125 64 868.503 64C869.882 64 871 62.8806 871 61.5C871 60.1194 869.882 59 868.503 59Z" fill="#161C2D"/>
</svg>
